<svg xmlns="http://www.w3.org/2000/svg" width="300" height="184" viewBox="0 0 600 368"><rect x="0" y="0" width="600" height="368" fill="white"></rect><g transform="translate(10,81.26)"><g transform="translate(153.64000000000001,110.74)"><circle cx="31" cy="13" r="11" fill="#cd677f"></circle></g><g transform="translate(76.82000000000001,0)"><rect x="1" y="10.5" width="52" height="6" rx="3" fill="#86af6a"></rect></g><g transform="translate(153.64000000000001,55.37)"><g fill="#efc637" stroke="#efc637"><rect x="12" y="1" width="23" height="6" rx="1" ry="1"></rect><rect x="19.666666666666668" y="10" width="23" height="6" rx="1" ry="1"></rect><rect x="12" y="19" width="23" height="6" rx="1" ry="1"></rect></g></g><g transform="translate(230.46,110.74)"><rect x="1" y="10.5" width="52" height="6" rx="3" fill="#cd677f"></rect></g><g transform="translate(76.82000000000001,55.37)"><rect x="1" y="10.5" width="52" height="6" rx="3" fill="#3D7FA6"></rect></g><g transform="translate(76.82000000000001,166.10999999999999)"><rect x="1" y="10.5" width="52" height="6" rx="3" fill="#845578"></rect></g><g transform="translate(460.92,166.10999999999999)"><g fill="#f6a035" stroke="#f6a035"><rect x="10" y="2" width="5" height="23" rx="1" ry="1"></rect><rect x="19" y="2" width="5" height="23" rx="1" ry="1"></rect><rect x="28" y="2" width="5" height="5" rx="1" ry="1"></rect><rect x="37" y="2" width="5" height="5" rx="1" ry="1"></rect></g></g><g transform="translate(76.82000000000001,110.74)"><rect x="1" y="10.5" width="52" height="6" rx="3" fill="#8bc2ca"></rect></g><g transform="translate(384.1,166.10999999999999)"><circle cx="31" cy="13" r="11" fill="#f6a035"></circle></g><g transform="translate(0,0)"><circle cx="31" cy="13" r="11" fill="#4f6980"></circle></g><g transform="translate(460.92,55.37)"><rect x="4" y="3" rx="1" ry="1" width="20" height="20" fill="#666"></rect></g><g transform="translate(384.1,110.74)"><rect x="1" y="10.5" width="52" height="6" rx="3" fill="#499893"></rect></g><g transform="translate(0,166.10999999999999)"><circle cx="31" cy="13" r="11" fill="#845578"></circle></g><g transform="translate(0,110.74)"><circle cx="31" cy="13" r="11" fill="#8bc2ca"></circle></g><g transform="translate(0,55.37)"><circle cx="31" cy="13" r="11" fill="#3D7FA6"></circle></g><g transform="translate(307.28000000000003,110.74)"><g stroke="gray" stroke-width="3"><path fill="white" d="M26.5 4.5 a11 11 0 1 0 0 17 "></path><path fill="#499893" d="M26.5 4.5 a11 11 0 1 1 0 17 "></path><path fill="#499893" d="M26.5 4.5 a11 11 0 0 0 0 17 a11 11 0 0 0 0 -17 Z"></path></g></g><g transform="translate(460.92,110.74)"><g stroke="#7e756d" stroke-width="3" fill="none" stroke-linecap="round"><path d="M33 5 L33 2 L19 2 L19 2.5 L26 13.5 L19 24.5 L19 25 L33 25 L33 22 "></path></g></g><g transform="translate(614.5600000000001,166.10999999999999)"><rect x="4" y="3" rx="1" ry="1" width="20" height="20" fill="#666"></rect></g><g transform="translate(537.74,166.10999999999999)"><g stroke="gray" stroke-width="3"><path fill="white" d="M26.5 4.5 a11 11 0 1 0 0 17 "></path><path fill="white" d="M26.5 4.5 a11 11 0 1 1 0 17 "></path><path fill="#b56252" d="M26.5 4.5 a11 11 0 0 0 0 17 a11 11 0 0 0 0 -17 Z"></path></g></g></g></svg>